<?xml version="1.0" standalone="no"?>
<!DOCTYPE svg PUBLIC "-//W3C//DTD SVG 20010904//EN"
 "http://www.w3.org/TR/2001/REC-SVG-20010904/DTD/svg10.dtd">
<svg version="1.0" xmlns="http://www.w3.org/2000/svg"
 width="750.000000pt" height="750.000000pt" viewBox="0 0 750.000000 750.000000"
 preserveAspectRatio="xMidYMid meet">
<metadata>
Created by potrace 1.11, written by Peter Selinger 2001-2013
</metadata>
<g transform="translate(0.000000,750.000000) scale(0.100000,-0.100000)"
fill="#000000" stroke="none">
<path d="M3560 7479 c-259 -20 -494 -85 -745 -209 -146 -71 -325 -182 -325
-200 0 -5 -5 -10 -12 -10 -6 0 -35 -18 -65 -40 l-53 -41 -2 -117 -2 -117 -5
114 -6 113 -138 -132 c-358 -345 -633 -762 -837 -1273 -46 -116 -135 -381
-142 -420 -2 -14 15 -29 67 -59 39 -22 86 -50 105 -61 19 -11 49 -27 65 -35
17 -8 41 -23 55 -32 42 -29 67 -32 107 -14 21 10 40 21 43 25 3 4 30 20 60 36
30 16 73 40 95 54 22 14 60 37 85 51 25 14 74 43 110 63 156 91 172 99 168 80
-1 -10 -20 -28 -40 -39 -21 -12 -47 -29 -58 -38 -11 -10 -23 -18 -26 -18 -13
0 -94 -41 -94 -48 0 -4 -17 -14 -37 -21 -21 -7 -47 -21 -58 -31 -11 -9 -45
-30 -75 -46 -30 -16 -56 -32 -58 -36 -2 -5 -10 -8 -18 -8 -8 0 -11 -7 -8 -17
4 -13 3 -14 -3 -5 -7 10 -18 7 -51 -10 -23 -13 -42 -26 -42 -30 0 -3 35 -24
77 -45 95 -49 146 -76 153 -83 3 -3 19 -12 35 -20 17 -8 36 -21 44 -28 7 -7
20 -11 28 -8 7 3 16 -1 19 -9 3 -7 12 -11 20 -8 8 3 14 -1 14 -8 0 -8 13 -20
28 -27 16 -6 38 -21 49 -32 12 -10 33 -22 47 -26 26 -6 81 -62 72 -72 -3 -3
-32 11 -63 30 -32 19 -78 46 -103 59 -25 13 -47 26 -50 29 -3 3 -18 12 -35 20
-16 8 -37 19 -45 26 -8 6 -46 28 -85 49 -38 21 -82 46 -97 56 -14 11 -29 19
-32 19 -4 0 -24 11 -46 25 -49 31 -80 31 -133 1 -23 -13 -64 -36 -92 -52 -27
-15 -52 -30 -55 -33 -3 -4 -18 -13 -35 -21 -16 -7 -43 -23 -60 -35 -16 -12
-55 -33 -86 -48 -31 -15 -63 -35 -72 -44 -10 -12 -21 -66 -33 -156 l-18 -139
25 -19 c13 -10 19 -19 13 -19 -5 0 -15 5 -22 12 -6 6 -14 10 -16 7 -6 -6 -25
-266 -31 -441 -5 -113 -3 -158 5 -158 7 0 8 -6 3 -15 -15 -25 -3 -95 16 -95
14 -1 14 -2 -2 -14 -12 -10 -17 -28 -17 -69 l0 -56 48 -23 c26 -13 49 -26 50
-30 2 -5 10 -8 18 -8 8 0 14 -4 14 -8 0 -4 12 -13 27 -19 42 -18 132 -69 151
-86 9 -8 28 -18 42 -22 13 -4 30 -14 38 -21 7 -8 22 -14 33 -14 10 0 19 -6 19
-12 1 -7 17 -21 36 -30 35 -16 36 -16 31 3 -3 10 -1 19 4 19 11 0 32 40 25 47
-3 4 -14 -1 -23 -9 -28 -24 -53 -30 -53 -13 0 8 -4 15 -10 15 -5 0 -10 5 -10
12 0 9 3 9 12 0 18 -18 38 -14 38 7 0 15 -8 21 -32 24 l-33 4 33 1 c33 2 42
18 20 40 -6 6 -9 15 -5 18 4 4 16 -3 27 -16 l20 -23 -6 31 c-5 27 -3 32 12 33
14 0 11 3 -8 11 -16 5 -28 14 -28 20 0 6 7 8 15 5 11 -5 14 2 13 28 -1 29 -4
33 -18 25 -14 -8 -19 -5 -23 15 -2 14 0 28 4 31 5 3 9 -2 9 -10 0 -21 13 -20
33 2 19 21 22 42 7 42 -14 0 -8 49 7 55 11 4 11 9 1 27 -7 12 -19 28 -27 34
-16 13 -7 34 16 34 11 0 14 6 9 25 -4 15 -2 25 5 25 6 0 13 -9 16 -20 6 -23
23 -27 23 -6 0 8 7 16 15 20 12 4 14 0 9 -22 -9 -36 -14 -43 -24 -37 -4 3 -10
-8 -12 -25 -4 -29 13 -47 33 -34 5 3 9 -2 9 -10 0 -8 -5 -18 -11 -21 -7 -5 -5
-13 6 -25 9 -10 13 -20 8 -22 -4 -3 -2 -3 6 -1 7 2 19 -4 26 -13 10 -15 14
-13 35 17 13 19 29 37 35 41 6 5 3 8 -7 8 -17 0 -38 28 -38 49 0 5 7 17 17 26
13 14 14 18 2 25 -8 6 -19 4 -30 -6 -31 -28 -41 -8 -12 25 12 15 21 18 35 10
14 -7 18 -6 18 6 0 8 -7 15 -15 15 -8 0 -15 5 -15 11 0 6 6 9 14 6 26 -10 26
6 0 20 -32 16 -51 17 -56 1 -3 -9 -6 -9 -12 0 -4 7 -2 12 3 12 6 0 11 5 11 10
0 19 -23 10 -51 -20 l-28 -29 -19 24 c-11 14 -30 29 -43 35 -13 5 -42 21 -64
35 -22 14 -48 28 -57 31 -18 6 -26 44 -10 44 5 0 17 -10 28 -21 10 -12 34 -28
52 -36 17 -7 32 -18 32 -23 0 -6 11 -10 24 -10 14 0 28 -5 32 -11 12 -19 24
13 12 34 -7 15 -6 23 6 35 10 11 16 12 16 4 0 -7 -6 -12 -12 -12 -8 0 -6 -5 4
-11 10 -5 15 -16 12 -24 -7 -18 4 -19 39 -2 26 12 40 57 17 57 -6 0 -10 -7 -8
-16 2 -10 -3 -19 -9 -21 -17 -6 -16 22 1 36 8 6 16 20 19 31 6 22 -17 47 -28
30 -10 -16 -38 -12 -32 5 4 8 2 17 -4 20 -5 4 -12 -1 -15 -10 -5 -11 -10 -13
-18 -5 -9 7 -19 5 -32 -5 -10 -8 -26 -15 -35 -15 -9 0 -22 -7 -29 -15 -7 -8
-19 -15 -27 -15 -12 0 -12 2 1 15 8 8 19 15 25 15 6 0 11 5 11 10 0 6 9 10 19
10 11 0 33 13 49 30 35 34 58 38 66 12 4 -10 22 -25 42 -32 20 -8 41 -22 48
-31 6 -9 26 -20 44 -23 17 -4 32 -11 32 -15 0 -4 17 -16 37 -28 21 -11 74 -39
118 -63 75 -40 111 -68 101 -78 -3 -2 -15 3 -28 12 -12 9 -30 16 -40 16 -14 0
-15 -5 -8 -29 5 -18 4 -33 -2 -39 -6 -6 -8 -18 -4 -27 5 -13 10 -14 27 -5 15
9 19 18 15 35 -3 13 -2 27 4 30 5 3 10 -1 10 -9 0 -20 14 -20 30 -1 16 20 32
19 61 -4 13 -10 35 -22 49 -26 14 -4 44 -21 67 -36 23 -16 45 -29 50 -29 4 0
19 -9 33 -20 21 -16 23 -21 11 -32 -10 -10 -15 -10 -18 -1 -2 7 -11 9 -19 6
-8 -3 -14 1 -14 11 0 9 -4 16 -10 16 -13 0 -13 -16 1 -42 9 -16 8 -23 -2 -29
-8 -5 -9 -9 -3 -9 16 0 70 28 83 44 8 9 11 111 12 324 0 282 5 352 23 306 3
-9 6 -153 6 -320 l0 -305 37 26 c21 14 43 25 50 25 7 0 13 5 13 10 0 6 6 10
13 10 7 0 23 9 35 20 12 11 26 20 32 20 16 0 12 20 -21 105 -31 81 -92 325
-83 334 11 12 25 -23 54 -144 31 -127 167 -490 232 -619 16 -32 49 -109 73
-170 36 -92 56 -126 116 -200 51 -62 63 -82 41 -66 -29 22 -36 23 -114 15 -46
-5 -215 -9 -376 -10 -228 -1 -295 -4 -305 -15 -9 -10 -9 -11 1 -6 6 4 12 5 12
2 0 -4 -21 -56 -26 -64 -1 -2 -11 2 -22 9 -17 11 -39 -4 -203 -133 -101 -79
-276 -214 -389 -298 -112 -84 -219 -168 -237 -186 l-32 -32 24 -76 c42 -132
122 -326 203 -491 78 -159 232 -428 252 -440 11 -7 140 73 140 85 0 4 12 20
28 37 15 16 43 50 62 74 19 24 51 62 71 84 19 22 71 84 115 138 134 167 128
162 88 67 l-36 -85 7 -150 c4 -82 9 -193 12 -245 8 -128 8 -126 -1 -200 -5
-36 -10 -78 -12 -95 -1 -16 -6 -50 -9 -75 -3 -25 -8 -74 -11 -110 l-6 -65 68
-61 c182 -162 350 -277 549 -375 254 -124 491 -189 758 -209 417 -29 848 81
1217 310 143 90 141 88 145 151 2 30 5 61 7 69 1 8 -3 74 -10 145 -14 149 -20
315 -11 315 9 0 235 -213 286 -269 l42 -46 61 60 c186 182 402 486 558 784
l76 145 -110 100 c-60 55 -145 136 -188 180 -44 45 -82 80 -86 79 -9 -3 -127
103 -190 170 -50 54 -52 58 -26 51 26 -6 27 -5 17 12 -25 44 -44 55 -182 110
-79 31 -156 65 -170 75 -57 40 -276 140 -382 175 -94 31 -117 42 -135 68 l-22
31 0 -30 c0 -58 -17 -8 -29 85 -16 119 -41 230 -54 230 -5 0 -55 -34 -110 -76
-124 -93 -412 -238 -492 -248 -27 -3 -75 -10 -105 -16 -30 -6 -121 -11 -202
-10 -138 1 -147 -1 -161 -21 -14 -20 -16 -20 -41 -4 -43 29 -30 78 15 54 47
-24 494 2 523 31 7 7 5 10 -5 10 -8 0 -38 24 -66 53 l-52 52 14 95 c8 52 15
110 15 128 0 27 11 44 64 96 59 58 77 86 120 191 24 57 25 127 3 149 -15 15
-23 16 -65 6 -87 -22 -131 -24 -138 -6 -3 9 -10 13 -15 10 -5 -3 -6 -10 -3
-16 4 -7 2 -8 -4 -4 -6 4 -8 14 -5 23 4 10 2 14 -5 9 -6 -3 -14 -1 -18 5 -4 8
-3 9 4 5 22 -13 12 6 -12 25 -14 11 -34 34 -45 53 -23 37 -89 71 -122 63 -33
-9 -169 130 -169 172 0 17 -4 32 -8 35 -11 7 -99 -78 -107 -102 -6 -21 -61
-49 -73 -38 -4 4 -8 40 -10 81 -4 67 -1 79 36 161 22 49 50 125 62 169 37 133
54 131 85 -10 25 -113 25 -114 37 -85 6 14 12 34 13 45 2 11 11 52 20 90 10
39 18 88 18 110 0 22 4 45 9 52 5 7 5 14 -1 17 -10 7 -4 43 9 51 5 3 22 -16
39 -42 27 -42 71 -101 115 -153 7 -8 30 -30 51 -47 30 -26 34 -33 19 -34 -18
0 -18 -1 -1 -8 10 -4 17 -10 15 -14 -2 -3 5 -15 14 -27 12 -13 14 -20 5 -20
-6 -1 -1 -10 13 -21 14 -12 24 -23 23 -25 -7 -11 -2 -24 7 -19 6 3 10 -2 10
-12 0 -15 2 -14 16 5 8 12 12 27 8 34 -4 6 -3 8 4 4 6 -3 13 -2 17 4 4 6 11 7
17 4 6 -4 8 -2 4 4 -3 6 1 15 10 20 15 8 15 10 0 15 -9 4 -20 -1 -25 -11 -6
-9 -10 -12 -11 -7 0 28 18 36 66 30 83 -11 245 10 351 46 112 37 207 88 309
167 66 51 76 64 99 124 19 48 24 76 20 100 -6 31 -2 38 33 70 35 31 197 118
221 118 18 0 44 -218 38 -320 -6 -118 -6 -118 89 -18 l61 63 7 98 c11 169 14
180 52 206 18 13 51 46 73 74 22 29 53 68 70 87 17 19 31 40 31 45 0 6 12 18
25 28 25 18 25 17 36 -6 8 -18 3 -65 -21 -207 -17 -102 -33 -192 -36 -200 -2
-10 8 -20 29 -29 17 -7 49 -24 69 -37 46 -30 72 -32 63 -5 -8 26 -9 107 -1
119 3 6 2 13 -3 16 -6 4 -6 18 -1 34 4 17 4 36 -2 46 -7 12 -7 21 0 28 7 7 8
18 3 27 -5 9 -7 39 -5 66 2 28 4 57 4 65 0 32 2 76 5 95 1 11 3 39 4 63 0 24
5 41 9 38 5 -3 10 -115 11 -248 4 -312 4 -321 1 -333 -4 -19 0 -35 9 -35 5 0
61 32 125 70 63 39 118 70 122 70 4 0 15 6 23 14 16 14 56 37 208 118 45 24
94 54 110 68 15 13 28 23 28 21 0 -2 21 6 48 18 26 12 47 25 47 29 0 7 -68 48
-127 76 -13 6 -23 14 -23 19 0 4 -4 7 -8 7 -8 0 -232 126 -282 159 -46 30 -65
41 -80 48 -8 4 -46 25 -85 48 -93 55 -119 64 -121 45 -1 -5 -2 -26 -3 -46 0
-19 -5 -33 -10 -30 -5 3 -6 26 -3 51 4 41 3 45 -17 45 -11 0 -21 -4 -21 -9 0
-8 -37 -24 -52 -22 -5 1 -8 -3 -8 -8 0 -10 -84 -63 -116 -72 -20 -6 -21 -3
-23 70 -1 43 3 90 9 107 6 16 19 68 29 115 17 84 17 88 -1 135 -10 27 -29 97
-43 156 -13 59 -33 124 -43 145 -11 21 -41 97 -67 168 -47 125 -52 135 -160
270 -91 114 -130 154 -204 209 -50 37 -91 70 -91 72 0 3 40 -23 89 -57 74 -51
109 -86 210 -208 118 -142 125 -153 201 -319 64 -141 84 -197 109 -309 17 -74
31 -147 31 -160 0 -13 -11 -74 -25 -134 -30 -134 -42 -239 -27 -239 6 0 45 20
86 45 42 25 81 45 86 45 5 0 15 9 22 20 16 25 40 26 62 1 10 -11 34 -27 53
-36 20 -10 85 -46 145 -81 60 -35 111 -64 114 -64 3 0 40 -22 82 -49 42 -26
102 -62 132 -78 30 -17 87 -49 126 -72 39 -22 77 -41 84 -41 7 0 23 -8 34 -17
16 -14 18 -14 8 -2 -6 9 -10 18 -7 20 7 8 -50 216 -101 374 -299 916 -861
1634 -1539 1966 -254 124 -487 188 -760 209 -77 5 -149 9 -160 9 -11 -1 -67
-5 -125 -10z m355 -339 c11 -17 -5 -32 -21 -19 -7 6 -11 15 -8 20 7 12 21 11
29 -1z m-615 -150 c-8 -5 -19 -10 -25 -10 -5 0 -3 5 5 10 8 5 20 10 25 10 6 0
3 -5 -5 -10z m-138 -109 c-97 -108 -105 -121 -92 -155 11 -30 13 -30 43 -14
20 10 21 10 9 -5 -8 -9 -22 -19 -32 -22 -31 -10 -140 -227 -166 -330 -13 -49
-23 -81 -23 -70 -1 11 3 36 8 55 6 19 12 51 16 70 3 19 7 40 9 45 16 55 28
103 46 175 15 60 38 113 78 180 51 88 60 97 116 127 34 18 62 32 64 33 2 0
-33 -40 -76 -89z m-395 23 c-3 -3 -12 -4 -19 -1 -8 3 -5 6 6 6 11 1 17 -2 13
-5z m-62 -190 c-44 -41 -106 -95 -137 -120 -32 -26 -64 -56 -72 -69 -8 -12
-42 -44 -76 -71 -53 -42 -70 -65 -127 -171 -36 -68 -70 -123 -74 -123 -10 0
28 137 44 156 6 9 29 34 50 57 l37 42 2 165 2 165 6 -160 c5 -146 6 -158 19
-132 8 15 18 27 23 27 4 0 8 6 8 13 0 13 72 82 145 139 44 35 219 157 225 157
3 0 -31 -34 -75 -75z m1980 -24 c-3 -5 -13 -10 -21 -10 -8 0 -14 5 -14 10 0 6
9 10 21 10 11 0 17 -4 14 -10z m-2445 -370 c0 -5 -5 -10 -11 -10 -5 0 -7 5 -4
10 3 6 8 10 11 10 2 0 4 -4 4 -10z m3218 -71 c-2 -6 -8 -10 -13 -10 -5 0 -11
4 -13 10 -2 6 4 11 13 11 9 0 15 -5 13 -11z m-144 -80 c-3 -5 -10 -7 -15 -3
-5 3 -7 10 -3 15 3 5 10 7 15 3 5 -3 7 -10 3 -15z m-1588 -178 c-2 -3 9 -7 25
-8 20 -2 29 2 29 12 0 8 5 15 10 15 6 0 10 -5 10 -11 0 -5 4 -7 10 -4 5 3 7 0
4 -8 -4 -11 1 -13 20 -10 13 3 42 -1 63 -8 21 -7 50 -14 66 -15 15 0 30 -4 34
-7 3 -4 12 -2 20 4 9 9 13 8 13 0 0 -7 9 -9 26 -5 22 6 25 4 19 -7 -7 -11 -5
-11 10 1 17 13 18 13 13 -1 -4 -9 -1 -16 7 -16 7 0 11 6 8 14 -3 8 2 13 12 13
12 0 16 -6 12 -19 -4 -17 -2 -18 19 -11 16 6 23 6 21 -1 -1 -6 12 -13 28 -14
l30 -4 -25 14 c-14 8 -19 14 -12 15 6 0 21 -9 32 -20 21 -21 35 -27 26 -11 -3
5 0 11 8 14 10 4 12 0 9 -14 -5 -16 -1 -20 13 -17 12 2 18 -2 16 -11 -3 -12
-1 -12 14 0 12 9 15 9 10 2 -5 -9 0 -13 15 -13 19 0 20 2 8 18 -13 15 -12 16
3 4 9 -8 23 -10 30 -6 10 5 11 4 1 -7 -19 -19 -16 -33 3 -15 11 12 20 13 33 6
10 -5 21 -7 24 -3 4 3 4 -4 2 -16 -2 -12 0 -19 5 -16 4 3 11 -1 14 -7 3 -7 3
-1 1 15 -5 34 2 35 15 2 5 -14 13 -24 17 -23 16 5 53 -27 53 -46 0 -16 2 -17
17 -5 11 10 14 10 9 2 -4 -7 -3 -13 2 -13 6 0 13 -7 16 -16 6 -15 4 -15 -11
-3 -17 13 -17 12 -2 -6 37 -46 42 -81 36 -238 -3 -84 -8 -163 -10 -177 -3 -14
-8 -48 -11 -77 -7 -56 -13 -46 85 -158 109 -124 129 -149 122 -156 -13 -12
-230 -48 -413 -69 -180 -21 -498 -68 -511 -75 -3 -3 -14 4 -24 15 -24 27 -30
26 -78 -13 -36 -28 -141 -66 -153 -54 -2 1 8 38 21 82 l25 79 -26 27 c-22 23
-24 29 -13 47 8 13 29 24 53 28 23 3 45 12 51 19 5 6 37 18 70 25 33 7 65 15
70 18 25 16 137 31 230 33 117 1 154 -7 259 -60 39 -19 74 -37 79 -39 4 -2 7
8 7 21 0 34 -71 106 -135 136 -106 50 -145 59 -280 67 -107 5 -187 1 -403 -22
l-63 -7 6 49 c6 44 1 67 -50 204 -109 295 -132 377 -115 420 1 3 2 14 1 25 -1
18 -1 19 9 3 8 -13 14 -15 23 -8 7 6 21 18 32 26 11 9 14 13 8 9 -22 -11 -14
4 8 16 15 8 19 8 15 0 -4 -6 -3 -11 2 -11 6 0 12 6 15 14 5 11 48 27 82 30 6
1 18 9 28 19 11 11 27 17 38 14 10 -3 18 -2 17 2 -2 15 3 19 22 14 11 -3 18
-8 16 -12z m-940 -28 c-3 -3 -1 -14 5 -24 6 -13 6 -19 -1 -19 -5 0 -10 -12
-10 -27 0 -45 -132 -259 -152 -247 -4 3 2 14 13 25 23 23 21 41 -4 45 -21 3
-43 -21 -27 -31 6 -4 9 -1 8 5 -2 7 5 14 15 15 21 4 22 -2 2 -22 -9 -8 -23
-12 -32 -9 -13 6 -14 4 -3 -9 7 -9 9 -15 4 -14 -23 4 -42 -2 -48 -17 -3 -8 -2
-12 4 -9 6 3 7 -1 4 -10 -5 -12 -10 -13 -19 -5 -21 17 -68 -16 -56 -39 7 -13
4 -20 -10 -29 -11 -7 -17 -18 -13 -24 5 -7 2 -9 -9 -5 -10 4 -21 -3 -32 -21
l-16 -27 20 24 c15 16 21 19 21 8 0 -14 -16 -26 -31 -23 -4 0 -16 -8 -28 -18
-12 -11 -21 -14 -21 -8 0 7 6 12 13 13 9 0 9 2 -1 6 -6 2 -9 10 -5 16 4 6 0 8
-9 4 -12 -4 -18 2 -23 20 l-6 26 -15 -22 c-9 -12 -19 -43 -24 -69 -6 -39 -8
-29 -9 58 0 58 2 135 5 171 l7 67 125 93 c109 82 138 98 221 126 53 17 98 27
99 22 2 -5 11 -9 20 -8 11 0 12 2 4 6 -6 2 -9 9 -6 15 4 7 10 4 16 -6 6 -10 7
-20 4 -23z m21 -8 c0 -8 -4 -12 -9 -9 -5 3 -6 10 -3 15 9 13 12 11 12 -6z
m2315 -103 c11 -24 17 -46 15 -49 -3 -2 -8 6 -12 18 -4 12 -23 48 -42 78 -28
47 -30 51 -8 26 15 -16 36 -49 47 -73z m-3017 -142 c-9 -41 -17 -33 -9 9 4 17
9 30 11 27 3 -2 2 -19 -2 -36z m435 -115 c0 -8 -4 -15 -10 -15 -5 0 -10 -8
-11 -17 0 -15 -2 -15 -8 2 -5 11 -4 25 1 33 14 17 28 15 28 -3z m-450 -79 c0
-6 13 -32 28 -57 16 -24 33 -64 40 -88 l11 -44 -30 29 c-22 22 -34 50 -48 107
-10 42 -14 74 -10 71 5 -3 9 -11 9 -18z m393 -31 c-3 -9 -8 -14 -10 -11 -3 3
-2 9 2 15 9 16 15 13 8 -4z m2973 -316 c2 -29 -11 -40 -18 -17 -6 17 3 60 11
53 3 -4 6 -20 7 -36z m-3270 -17 c-4 -3 -11 -1 -18 6 -8 8 -8 15 3 28 13 16
14 16 17 -5 2 -13 1 -25 -2 -29z m164 18 c-8 -5 -10 -10 -5 -10 6 0 9 -34 7
-87 -1 -59 5 -133 21 -223 20 -113 22 -136 10 -138 -8 -2 -17 -1 -20 1 -2 3
-15 91 -29 196 -13 105 -26 202 -30 215 -7 29 12 55 41 55 17 1 17 -1 5 -9z
m-252 -47 c-12 -3 -18 -14 -18 -31 0 -17 -3 -23 -10 -16 -16 16 0 54 24 53 17
-1 17 -2 4 -6z m69 -15 c-3 -8 -6 -5 -6 6 -1 11 2 17 5 13 3 -3 4 -12 1 -19z
m-191 -63 c-3 -8 0 -16 7 -18 9 -3 9 -8 -1 -20 -7 -8 -12 -28 -10 -43 2 -20
-2 -29 -15 -32 -15 -3 -16 0 -6 25 6 15 9 46 8 68 -3 62 0 73 12 52 6 -10 8
-24 5 -32z m64 13 c-1 -20 -2 -21 -13 -7 -7 9 -18 14 -24 12 -7 -3 -13 0 -13
6 0 6 11 11 25 11 19 0 25 -5 25 -22z m88 -82 c-1 -26 -4 -31 -13 -22 -9 7 -9
13 -2 17 5 4 7 14 4 23 -4 9 -2 16 3 16 5 0 9 -15 8 -34z m-68 -6 c0 -5 -5
-10 -11 -10 -5 0 -7 5 -4 10 3 6 8 10 11 10 2 0 4 -4 4 -10z m-280 -20 c0 -5
-2 -10 -4 -10 -3 0 -8 5 -11 10 -3 6 -1 10 4 10 6 0 11 -4 11 -10z m240 -20
c0 -5 -4 -10 -10 -10 -5 0 -10 5 -10 10 0 6 5 10 10 10 6 0 10 -4 10 -10z m58
-8 c2 -7 -3 -12 -12 -12 -9 0 -16 7 -16 16 0 17 22 14 28 -4z m-168 -6 c0 -3
-4 -8 -10 -11 -5 -3 -10 -1 -10 4 0 6 5 11 10 11 6 0 10 -2 10 -4z m64 -38
c-4 -12 -1 -24 7 -30 11 -8 11 -9 -1 -5 -9 2 -16 18 -18 36 -2 22 0 31 8 26 6
-4 8 -16 4 -27z m3853 3 c0 -11 -7 -17 -14 -14 -9 4 -9 8 0 19 16 17 16 17 14
-5z m-3786 -4 c-1 -12 -15 -9 -19 4 -3 6 1 10 8 8 6 -3 11 -8 11 -12z m74 -7
c3 -5 1 -10 -4 -10 -6 0 -11 5 -11 10 0 6 2 10 4 10 3 0 8 -4 11 -10z m-517
-42 c-2 -12 -10 -23 -18 -26 -12 -3 -12 -2 -3 8 6 7 9 19 6 26 -3 8 0 14 7 14
6 0 10 -10 8 -22z m522 -2 c0 -3 -4 -8 -10 -11 -5 -3 -10 -1 -10 4 0 6 5 11
10 11 6 0 10 -2 10 -4z m120 -6 c0 -5 -2 -10 -4 -10 -3 0 -8 5 -11 10 -3 6 -1
10 4 10 6 0 11 -4 11 -10z m-268 -68 c-3 -7 -6 -11 -8 -9 -7 7 -11 66 -5 73 8
7 19 -47 13 -64z m178 43 c0 -8 -4 -15 -9 -15 -13 0 -22 16 -14 24 11 11 23 6
23 -9z m-50 -25 c0 -5 -7 -10 -16 -10 -8 0 -12 5 -9 10 3 6 10 10 16 10 5 0 9
-4 9 -10z m180 -46 c0 -12 -7 -37 -15 -55 l-14 -34 -1 33 c0 26 -4 32 -22 32
-22 1 -23 1 -4 15 20 15 12 20 -21 16 -7 -1 -13 3 -13 9 0 12 41 30 53 23 4
-2 7 1 7 8 0 7 7 4 15 -7 8 -10 15 -29 15 -40z m-680 16 c0 -5 -5 -10 -11 -10
-5 0 -7 5 -4 10 3 6 8 10 11 10 2 0 4 -4 4 -10z m3747 -6 c-3 -3 -12 -4 -19
-1 -8 3 -5 6 6 6 11 1 17 -2 13 -5z m-3247 -14 c0 -5 -5 -10 -11 -10 -5 0 -7
5 -4 10 3 6 8 10 11 10 2 0 4 -4 4 -10z m55 -50 c3 -5 1 -10 -4 -10 -6 0 -11
5 -11 10 0 6 2 10 4 10 3 0 8 -4 11 -10z m-258 -26 c-3 -3 -12 -4 -19 -1 -8 3
-5 6 6 6 11 1 17 -2 13 -5z m3713 -14 c0 -5 -7 -10 -16 -10 -8 0 -12 5 -9 10
3 6 10 10 16 10 5 0 9 -4 9 -10z m-3353 -82 c-3 -7 -5 -2 -5 12 0 14 2 19 5
13 2 -7 2 -19 0 -25z m-657 -78 c0 -5 -7 -10 -16 -10 -8 0 -12 5 -9 10 3 6 10
10 16 10 5 0 9 -4 9 -10z m668 -62 c-3 -7 -14 -14 -26 -16 -12 -2 -22 -7 -22
-12 0 -5 -26 -22 -57 -36 -32 -15 -60 -30 -63 -34 -3 -4 -16 -11 -30 -15 -48
-15 -4 19 75 59 41 21 75 41 75 46 0 8 18 15 43 19 5 0 7 -5 5 -11z m-673 -67
c-6 -5 -25 10 -25 20 0 5 6 4 14 -3 8 -7 12 -15 11 -17z m5 -51 c0 -5 -8 -10
-17 -10 -15 0 -16 2 -3 10 19 12 20 12 20 0z m-427 -22 c12 -6 29 -15 37 -20
8 -4 22 -11 30 -15 17 -8 40 -29 40 -36 0 -3 -11 0 -25 6 -14 7 -25 15 -25 20
0 4 -9 7 -20 7 -11 0 -20 5 -20 10 0 6 -5 10 -11 10 -6 0 -17 7 -25 15 -18 18
-12 19 19 3z m747 -5 c0 -10 -4 -14 -8 -8 -4 6 -11 13 -16 18 -5 4 -2 7 7 7
10 0 17 -8 17 -17z m104 2 c-25 -19 -40 -19 -24 0 7 8 20 15 28 15 13 0 12 -3
-4 -15z m-44 -24 c0 -5 -9 -11 -20 -14 -22 -6 -26 3 -8 21 11 11 28 7 28 -7z
m-380 -2 c0 -6 -6 -17 -14 -24 -12 -12 -15 -12 -20 1 -3 9 -4 20 0 25 7 13 34
11 34 -2z m-65 -19 c3 -5 1 -10 -4 -10 -6 0 -11 5 -11 10 0 6 2 10 4 10 3 0 8
-4 11 -10z m378 -21 c-11 -12 -26 -18 -32 -15 -24 15 -6 31 39 35 10 1 8 -5
-7 -20z m-229 -4 c19 -15 19 -15 -1 -15 -11 0 -26 7 -33 15 -17 20 7 20 34 0z
m-358 -20 c10 -8 15 -14 9 -14 -5 0 -19 6 -29 14 -11 8 -15 15 -10 15 6 0 19
-7 30 -15z m274 -5 c0 -5 -5 -10 -11 -10 -5 0 -7 5 -4 10 3 6 8 10 11 10 2 0
4 -4 4 -10z m260 0 c0 -5 -7 -10 -15 -10 -8 0 -15 5 -15 10 0 6 7 10 15 10 8
0 15 -4 15 -10z m-490 -21 c0 -7 10 -9 24 -7 17 4 23 1 19 -9 -7 -19 -27 -16
-48 7 -10 11 -13 20 -7 20 7 0 12 -5 12 -11z m410 -19 c0 -5 -4 -10 -10 -10
-5 0 -10 5 -10 10 0 6 5 10 10 10 6 0 10 -4 10 -10z m-340 -25 c0 -8 -2 -15
-4 -15 -2 0 -6 7 -10 15 -3 8 -1 15 4 15 6 0 10 -7 10 -15z m310 11 c0 -3 -4
-8 -10 -11 -5 -3 -10 -1 -10 4 0 6 5 11 10 11 6 0 10 -2 10 -4z m-223 -41 c8
-23 -4 -30 -21 -12 -8 8 -12 17 -9 21 11 11 23 7 30 -9z m157 -9 c-10 -8 -21
-12 -24 -9 -3 2 4 11 14 19 11 7 22 12 25 9 2 -3 -4 -12 -15 -19z m806 -196
c0 -5 -5 -10 -11 -10 -5 0 -7 5 -4 10 3 6 8 10 11 10 2 0 4 -4 4 -10z m-1206
-35 c-29 -22 -40 -18 -14 5 13 11 26 18 28 15 3 -3 -3 -12 -14 -20z m-44 -23
c0 -13 -79 -52 -85 -41 -4 5 1 9 9 9 9 0 16 4 16 9 0 7 22 19 58 30 1 1 2 -3
2 -7z m450 -52 c0 -5 -4 -10 -10 -10 -5 0 -10 5 -10 10 0 6 5 10 10 10 6 0 10
-4 10 -10z m300 0 c0 -5 -4 -10 -10 -10 -5 0 -10 5 -10 10 0 6 5 10 10 10 6 0
10 -4 10 -10z m-862 -18 c-16 -9 -28 -23 -28 -31 0 -11 -3 -11 -15 -1 -14 12
-12 15 12 31 15 11 35 19 43 19 9 0 3 -8 -12 -18z m240 -37 c15 -14 22 -25 17
-25 -15 0 -72 49 -57 50 7 0 25 -11 40 -25z m-178 -10 c0 -8 7 -15 16 -15 8 0
12 -5 9 -11 -4 -6 -13 -8 -21 -5 -7 3 -18 -3 -23 -12 -9 -15 -10 -14 -11 6 0
12 5 22 11 22 6 0 9 7 5 15 -3 8 -1 15 4 15 6 0 10 -7 10 -15z m250 5 c0 -5
-2 -10 -4 -10 -3 0 -8 5 -11 10 -3 6 -1 10 4 10 6 0 11 -4 11 -10z m58 -24
c-7 -8 -15 -12 -17 -11 -5 6 10 25 20 25 5 0 4 -6 -3 -14z m-58 -6 c0 -5 -5
-10 -11 -10 -5 0 -7 5 -4 10 3 6 8 10 11 10 2 0 4 -4 4 -10z m86 -59 c18 -14
21 -22 12 -27 -6 -4 -14 -2 -16 4 -2 7 -12 12 -22 12 -20 0 -33 13 -23 24 11
10 24 7 49 -13z m-409 3 c-3 -3 -12 -4 -19 -1 -8 3 -5 6 6 6 11 1 17 -2 13 -5z
m592 -20 c16 10 14 -19 -3 -33 -18 -15 -41 11 -32 36 6 14 9 15 15 4 5 -7 14
-10 20 -7z m-279 -24 c0 -12 -30 -34 -37 -26 -3 3 -1 6 5 6 20 0 13 17 -8 23
-11 3 -20 10 -20 16 0 7 9 7 30 0 17 -6 30 -14 30 -19z m-125 -10 c3 -5 1 -10
-4 -10 -6 0 -11 5 -11 10 0 6 2 10 4 10 3 0 8 -4 11 -10z m155 0 c0 -5 -4 -10
-10 -10 -5 0 -10 5 -10 10 0 6 5 10 10 10 6 0 10 -4 10 -10z m90 -14 c0 -8 6
-17 13 -20 6 -3 3 -5 -8 -3 -20 2 -35 37 -16 37 6 0 11 -6 11 -14z m-192 -16
c7 -11 8 -20 2 -20 -5 0 -14 9 -20 20 -6 11 -7 20 -3 20 5 0 14 -9 21 -20z
m-224 -8 c2 -4 1 -14 -5 -22 -7 -13 -9 -12 -9 2 0 9 -8 19 -17 21 -14 4 -13 5
4 6 12 0 24 -3 27 -7z m83 -27 c-15 -16 -19 -13 -11 9 3 9 10 13 15 10 5 -3 3
-11 -4 -19z m221 -3 c2 -7 -3 -12 -12 -12 -9 0 -16 7 -16 16 0 17 22 14 28 -4z
m42 -2 c0 -5 -4 -10 -10 -10 -5 0 -10 5 -10 10 0 6 5 10 10 10 6 0 10 -4 10
-10z m-86 -29 c3 -5 -1 -11 -9 -15 -17 -6 -21 -36 -5 -36 20 0 9 -27 -19 -48
-33 -24 -67 -23 -106 2 -24 16 -26 20 -12 33 19 19 40 7 34 -18 -7 -24 10 -24
51 1 35 22 42 35 14 26 -10 -4 -27 0 -38 8 -19 14 -19 15 1 21 11 3 31 12 45
20 31 16 37 17 44 6z m100 -16 c3 -9 0 -15 -9 -15 -9 0 -12 6 -9 15 4 8 7 15
9 15 2 0 5 -7 9 -15z m2366 -25 c0 -25 -43 -51 -140 -82 -199 -66 -470 -63
-597 5 -33 18 -44 51 -20 60 13 5 85 2 192 -9 114 -11 175 -8 260 14 98 25
133 32 210 39 33 3 62 7 64 9 8 8 31 -19 31 -36z m-2400 -51 c0 -5 -11 -9 -25
-9 -22 0 -24 2 -13 19 9 15 15 17 25 9 7 -6 13 -14 13 -19z m15 -28 c3 -5 1
-12 -5 -16 -5 -3 -10 1 -10 9 0 18 6 21 15 7z m-105 -11 c0 -5 -4 -10 -10 -10
-5 0 -10 5 -10 10 0 6 5 10 10 10 6 0 10 -4 10 -10z m44 -19 c0 -14 5 -21 18
-21 20 0 24 -15 7 -25 -6 -4 -19 2 -29 13 -14 14 -16 22 -7 25 9 3 8 8 -3 22
-13 16 -13 18 0 13 8 -3 15 -15 14 -27z m1606 -426 c13 -14 21 -25 18 -25 -2
0 -15 11 -28 25 -13 14 -21 25 -18 25 2 0 15 -11 28 -25z m1278 -111 c-32 -65
-48 -58 -48 21 l0 64 35 -20 34 -20 -21 -45z m-1170 22 c23 -16 42 -30 42 -31
0 -2 -42 -30 -92 -63 -58 -37 -109 -80 -136 -113 -37 -45 -140 -124 -150 -115
-10 11 101 177 165 246 44 47 85 92 93 101 8 10 20 14 25 10 6 -3 29 -19 53
-35z m1096 -202 c-31 -78 -47 -100 -118 -174 -238 -248 -361 -397 -456 -550
-98 -158 -120 -182 -297 -319 -77 -59 -45 -25 55 59 130 109 162 140 162 154
0 3 39 69 86 147 79 128 106 162 300 367 203 217 215 231 255 319 24 51 44 91
46 90 1 -2 -13 -44 -33 -93z m233 -99 c-6 -25 -12 -43 -14 -42 -6 7 10 96 17
92 4 -2 3 -25 -3 -50z m423 -5 c0 -5 -7 -10 -16 -10 -8 0 -12 5 -9 10 3 6 10
10 16 10 5 0 9 -4 9 -10z m232 -88 c-16 -5 -82 17 -82 28 0 5 21 2 47 -7 26
-9 42 -18 35 -21z m-675 6 c-3 -8 -6 -5 -6 6 -1 11 2 17 5 13 3 -3 4 -12 1
-19z m-10 -40 c-3 -8 -6 -5 -6 6 -1 11 2 17 5 13 3 -3 4 -12 1 -19z m-10 -50
c-3 -8 -6 -5 -6 6 -1 11 2 17 5 13 3 -3 4 -12 1 -19z m-1677 -38 c20 -6 21 -8
5 -8 -11 0 -29 3 -40 8 -25 11 1 11 35 0z m63 -17 c-7 -2 -19 -2 -25 0 -7 3
-2 5 12 5 14 0 19 -2 13 -5z m44 -9 c-3 -3 -12 -4 -19 -1 -8 3 -5 6 6 6 11 1
17 -2 13 -5z m2738 -224 c10 -11 16 -20 13 -20 -3 0 -13 9 -23 20 -10 11 -16
20 -13 20 3 0 13 -9 23 -20z m-1508 -76 c-3 -3 -12 -4 -19 -1 -8 3 -5 6 6 6
11 1 17 -2 13 -5z m50 -10 c-3 -3 -12 -4 -19 -1 -8 3 -5 6 6 6 11 1 17 -2 13
-5z m-1326 -1072 c-7 -2 -18 1 -23 6 -8 8 -4 9 13 5 13 -4 18 -8 10 -11z m887
-192 c11 0 13 -3 5 -11 -12 -12 -65 -1 -57 13 3 5 13 7 21 4 8 -3 22 -6 31 -6z"/>
<path d="M4400 5840 c0 -5 5 -10 10 -10 6 0 10 5 10 10 0 6 -4 10 -10 10 -5 0
-10 -4 -10 -10z"/>
<path d="M1181 4973 c-55 -224 -70 -313 -55 -313 8 0 14 5 14 10 0 6 7 10 15
10 8 0 23 9 32 19 9 11 22 17 29 14 8 -3 14 0 14 6 0 6 5 11 10 11 10 0 37 16
136 77 61 39 108 63 120 63 8 0 14 5 14 10 0 6 6 10 14 10 8 0 16 6 19 14 4 9
-22 27 -81 57 -48 24 -93 50 -100 57 -8 7 -28 20 -45 28 -16 9 -39 25 -50 35
-43 40 -52 28 -86 -108z m39 -44 c0 -5 -7 -9 -15 -9 -15 0 -20 12 -9 23 8 8
24 -1 24 -14z m-13 -81 c-3 -8 -6 -5 -6 6 -1 11 2 17 5 13 3 -3 4 -12 1 -19z"/>
<path d="M6165 4867 c-22 -12 -42 -24 -45 -27 -3 -3 -16 -11 -30 -17 -26 -13
-95 -52 -197 -113 -32 -19 -67 -39 -78 -46 -11 -6 -48 -28 -82 -48 -144 -83
-185 -106 -193 -106 -5 0 -10 -3 -12 -7 -1 -5 -16 -16 -33 -25 l-30 -17 -3
-430 c-1 -247 2 -431 7 -431 5 0 14 7 21 15 7 8 18 15 25 15 7 0 24 9 38 20
13 11 47 31 73 45 27 15 78 44 114 65 36 21 71 39 78 39 6 1 12 6 12 11 0 6 6
10 13 10 7 0 22 8 33 18 11 9 46 30 77 46 31 16 57 32 57 37 0 5 9 9 19 9 11
0 33 11 49 25 17 14 35 25 41 25 17 0 64 31 79 53 18 23 47 4 33 -22 -5 -9 -7
-43 -6 -77 3 -59 -6 -97 -19 -76 -6 10 -46 5 -46 -7 0 -14 39 -31 46 -20 5 8
9 8 14 -1 9 -14 110 38 110 58 0 6 9 12 19 12 25 0 31 19 31 93 0 199 -89 843
-123 885 -14 18 -47 14 -92 -11z m52 -284 c-3 -10 -5 -2 -5 17 0 19 2 27 5 18
2 -10 2 -26 0 -35z m-240 31 c-3 -3 -12 -4 -19 -1 -8 3 -5 6 6 6 11 1 17 -2
13 -5z m188 -59 c0 -28 -29 -25 -33 3 -3 19 0 23 15 20 10 -2 18 -12 18 -23z
m52 -37 c-3 -8 -6 -5 -6 6 -1 11 2 17 5 13 3 -3 4 -12 1 -19z m-366 -47 c6
-59 3 -66 -23 -69 -16 -2 -28 -11 -31 -23 -6 -21 -23 -24 -47 -9 -13 9 -13 11
-1 19 13 8 12 15 -4 45 -18 34 -18 36 -1 55 10 11 28 21 40 23 27 4 66 -19 67
-41z m365 -19 c-12 -11 -18 7 -10 30 l8 23 4 -23 c2 -13 1 -26 -2 -30z m-685
-22 c5 0 9 -4 9 -10 0 -16 -26 -12 -41 7 -12 15 -12 16 4 10 10 -4 23 -7 28
-7z m689 -16 c0 -8 -4 -12 -10 -9 -5 3 -10 10 -10 16 0 5 5 9 10 9 6 0 10 -7
10 -16z m-628 -24 c12 -11 30 -20 39 -20 10 0 24 -8 31 -19 7 -10 22 -20 32
-22 11 -2 21 -10 24 -17 3 -11 0 -12 -18 -2 -12 6 -24 9 -27 6 -3 -2 -17 6
-31 20 -15 13 -31 24 -35 24 -15 0 -57 37 -50 44 9 9 12 8 35 -14z m305 -22
c-3 -8 -6 -5 -6 6 -1 11 2 17 5 13 3 -3 4 -12 1 -19z m-105 -88 c10 0 18 -4
18 -10 0 -5 7 -10 15 -10 7 0 18 -6 22 -13 4 -6 33 -25 63 -41 30 -16 67 -37
82 -48 14 -10 33 -16 41 -12 9 3 16 -3 20 -15 7 -30 -25 -28 -58 3 -14 13 -45
34 -68 45 -95 48 -177 100 -177 114 0 8 4 7 12 -1 7 -7 20 -12 30 -12z m428
-62 c-5 -13 -9 -17 -9 -10 -1 9 -8 11 -21 7 -11 -4 -20 -2 -20 4 0 6 5 11 10
11 6 0 16 12 22 26 12 25 12 25 20 5 4 -12 3 -31 -2 -43z m-80 -18 c0 -5 -4
-10 -10 -10 -5 0 -10 5 -10 10 0 6 5 10 10 10 6 0 10 -4 10 -10z m-36 -25 c-4
-8 -15 -15 -26 -15 -17 0 -18 3 -8 15 7 8 19 15 26 15 8 0 11 -6 8 -15z m116
-52 c0 -31 -3 -54 -6 -50 -7 7 -13 89 -7 100 10 17 13 4 13 -50z m-123 -29
c-3 -3 -12 -4 -19 -1 -8 3 -5 6 6 6 11 1 17 -2 13 -5z m41 -20 c12 -4 22 -10
22 -15 0 -13 -23 -10 -44 6 -21 16 -15 18 22 9z m129 -30 c-3 -3 -12 -4 -19
-1 -8 3 -5 6 6 6 11 1 17 -2 13 -5z m-241 -101 c-11 -11 -19 6 -11 24 8 17 8
17 12 0 3 -10 2 -21 -1 -24z m314 6 c0 -5 8 -9 17 -9 9 0 14 -3 10 -6 -7 -7
-67 18 -67 28 0 3 9 4 20 1 11 -3 20 -9 20 -14z"/>
<path d="M5261 4517 c-5 -18 -12 -63 -15 -102 -4 -38 -9 -95 -11 -125 -3 -30
-8 -66 -11 -80 -3 -14 -10 -48 -14 -77 -7 -39 -22 -69 -63 -125 -71 -96 -86
-108 -148 -121 -28 -7 -51 -16 -50 -22 1 -5 9 -9 17 -7 8 2 14 -2 14 -8 0 -5
7 -10 15 -10 9 0 18 -6 21 -14 3 -8 12 -12 20 -9 8 3 22 -1 32 -9 27 -23 169
-108 180 -108 5 0 12 -7 16 -15 3 -8 12 -15 20 -15 8 0 21 -6 28 -12 7 -7 29
-21 48 -32 19 -10 40 -25 47 -33 16 -21 32 38 27 102 -2 28 -3 91 -3 140 0 50
0 97 0 105 0 8 0 58 1 110 0 52 1 111 1 130 1 106 -6 261 -11 258 -4 -2 -31
-14 -59 -28 -29 -13 -53 -27 -53 -32 0 -4 -6 -8 -14 -8 -8 0 -16 -6 -19 -12
-4 -10 -7 -10 -18 -1 -10 10 -6 15 24 28 19 8 38 19 42 25 3 5 26 19 51 30 24
11 44 23 44 25 0 3 -15 11 -32 20 -18 8 -52 25 -75 39 l-42 25 -10 -32z"/>
<path d="M6176 3975 c-6 -17 9 -29 24 -20 14 9 12 22 -4 28 -8 3 -17 -1 -20
-8z"/>
<path d="M1679 3923 c-12 -15 -12 -16 4 -10 15 6 16 4 7 -13 -8 -16 -8 -20 3
-20 8 0 20 7 27 15 10 12 10 18 0 30 -16 19 -24 19 -41 -2z"/>
<path d="M6064 3912 c4 -6 14 -8 23 -5 12 5 15 2 10 -10 -4 -11 -1 -17 8 -17
8 0 15 -4 15 -10 0 -16 17 -11 24 7 9 22 -1 30 -48 39 -27 5 -37 3 -32 -4z"/>
<path d="M6170 3895 c0 -8 5 -15 10 -15 6 0 10 7 10 15 0 8 -4 15 -10 15 -5 0
-10 -7 -10 -15z"/>
<path d="M1760 3879 c0 -5 5 -7 10 -4 6 3 10 8 10 11 0 2 -4 4 -10 4 -5 0 -10
-5 -10 -11z"/>
<path d="M6343 3865 c-18 -5 -33 -13 -33 -17 0 -4 -9 -8 -19 -8 -12 0 -21 -9
-25 -26 -6 -21 -10 -24 -21 -14 -11 10 -15 7 -21 -13 -3 -15 -11 -24 -19 -21
-13 5 -51 -63 -41 -73 3 -4 6 -1 6 7 0 9 3 10 14 1 11 -9 15 -5 20 20 3 18 9
29 13 26 6 -6 7 -21 13 -132 1 -27 4 -42 7 -32 8 31 30 20 25 -14 -3 -19 -9
-28 -17 -25 -18 6 -22 -10 -15 -64 l5 -45 15 33 c8 17 18 32 22 32 13 0 9 -12
-17 -46 -24 -31 -25 -40 -25 -158 0 -115 1 -125 18 -119 9 3 22 11 27 17 6 6
15 11 20 12 27 3 54 18 60 32 4 10 9 47 12 85 5 60 4 67 -12 67 -10 0 -27 -8
-37 -17 -18 -16 -18 -16 -12 2 5 13 4 16 -4 11 -7 -4 -22 0 -34 9 -21 15 -22
16 -3 14 11 -2 41 1 68 5 l47 7 0 63 c0 55 -3 66 -22 79 -13 8 -20 18 -16 22
4 4 14 2 23 -5 13 -11 15 -6 15 40 l0 51 -26 -20 c-15 -12 -31 -21 -37 -21
-14 0 31 38 54 45 17 6 19 16 18 83 -1 109 -6 119 -46 107z m37 -97 c0 -19 -2
-20 -10 -8 -13 19 -13 30 0 30 6 0 10 -10 10 -22z m-79 -38 c5 0 9 -4 9 -10 0
-5 -4 -10 -8 -10 -12 0 -32 47 -24 55 4 4 8 -3 10 -14 2 -12 8 -21 13 -21z
m-5 -195 c13 -13 13 -15 1 -15 -8 0 -17 7 -21 15 -3 8 -3 15 0 15 3 0 12 -7
20 -15z m69 -35 c3 -5 1 -10 -4 -10 -6 0 -11 5 -11 10 0 6 2 10 4 10 3 0 8 -4
11 -10z m-45 -47 c-1 -18 -18 -35 -24 -24 -4 6 -4 16 -1 21 7 12 25 13 25 3z
m40 3 c0 -2 -7 -9 -15 -16 -12 -10 -15 -10 -15 4 0 9 7 16 15 16 8 0 15 -2 15
-4z m-94 -131 c-8 -8 -17 -15 -20 -15 -3 0 -3 7 0 15 4 8 13 15 21 15 12 0 12
-2 -1 -15z m64 -15 c0 -5 -4 -10 -10 -10 -5 0 -10 5 -10 10 0 6 5 10 10 10 6
0 10 -4 10 -10z m-43 -29 c-6 -37 -16 -53 -28 -46 -14 9 -11 25 6 25 8 0 14 3
14 8 -3 16 1 42 7 42 3 0 3 -13 1 -29z m20 -53 c-3 -8 -6 -5 -6 6 -1 11 2 17
5 13 3 -3 4 -12 1 -19z"/>
<path d="M5980 3859 c0 -5 5 -7 10 -4 6 3 10 8 10 11 0 2 -4 4 -10 4 -5 0 -10
-5 -10 -11z"/>
<path d="M1744 3850 c-3 -2 -17 -4 -31 -5 -14 0 -28 -6 -30 -12 -3 -9 6 -13
29 -13 30 0 34 -4 46 -41 7 -22 10 -44 7 -48 -2 -5 2 -15 11 -22 13 -10 17
-10 24 1 4 7 6 20 3 28 -3 8 0 17 7 22 9 6 9 13 1 28 -17 33 -13 52 11 52 12
0 18 3 15 7 -8 7 -86 10 -93 3z m32 -37 c-10 -10 -19 5 -10 18 6 11 8 11 12 0
2 -7 1 -15 -2 -18z"/>
<path d="M6051 3841 c-7 -13 -18 -17 -35 -14 -20 4 -28 0 -37 -21 -11 -23 -10
-28 7 -40 21 -16 32 -3 15 18 -15 17 13 30 37 17 9 -4 23 -6 31 -3 7 2 17 -1
21 -8 6 -9 13 -8 28 6 23 19 20 37 -3 27 -9 -3 -15 1 -15 10 0 8 -7 18 -16 21
-22 8 -22 8 -33 -13z"/>
<path d="M4951 3827 c0 -10 -8 -20 -16 -23 -8 -4 -12 -10 -9 -16 3 -5 11 -4
20 3 10 8 14 8 14 0 0 -16 17 -14 23 3 4 10 1 13 -8 10 -8 -4 -15 3 -18 18 -3
15 -5 17 -6 5z"/>
<path d="M1890 3783 c0 -12 3 -14 8 -7 4 7 16 14 27 17 15 4 14 5 -7 6 -21 1
-28 -4 -28 -16z"/>
<path d="M6160 3785 c0 -9 6 -12 15 -9 8 4 15 10 15 15 0 5 -7 9 -15 9 -8 0
-15 -7 -15 -15z"/>
<path d="M5030 3765 c-9 -10 -9 -15 -1 -15 6 0 11 -4 11 -10 0 -5 -7 -10 -15
-10 -19 0 -20 -39 -1 -46 8 -3 12 -13 9 -25 -3 -11 0 -19 7 -19 9 0 11 10 6
31 -4 23 -2 35 10 43 11 8 13 20 9 39 -8 31 -17 34 -35 12z"/>
<path d="M6100 3742 c0 -15 -5 -33 -12 -40 -6 -6 -9 -14 -6 -18 4 -3 16 4 27
15 12 12 26 21 31 21 15 0 12 19 -4 36 -22 22 -36 17 -36 -14z"/>
<path d="M1816 3753 c-3 -3 -3 -10 0 -14 7 -12 34 -11 34 0 0 11 -26 22 -34
14z"/>
<path d="M5090 3736 c0 -22 3 -27 11 -19 8 8 8 16 0 30 -9 16 -10 14 -11 -11z"/>
<path d="M5850 3745 c-8 -9 -8 -15 -2 -15 12 0 26 19 19 26 -2 2 -10 -2 -17
-11z"/>
<path d="M1912 3738 c-15 -15 -16 -38 -2 -38 6 0 10 -5 10 -11 0 -6 -6 -9 -13
-6 -7 3 -13 -3 -13 -13 0 -15 4 -16 19 -9 25 14 33 39 16 51 -11 7 -11 11 -1
15 13 5 17 23 4 23 -4 0 -13 -5 -20 -12z"/>
<path d="M5769 3729 c-12 -8 -10 -12 6 -25 29 -22 55 -36 55 -28 0 3 -11 19
-24 34 -16 20 -27 25 -37 19z"/>
<path d="M6000 3728 c0 -9 5 -20 11 -23 17 -11 18 -2 3 19 -12 17 -14 17 -14
4z"/>
<path d="M4975 3720 c3 -5 10 -10 16 -10 5 0 9 5 9 10 0 6 -7 10 -16 10 -8 0
-12 -4 -9 -10z"/>
<path d="M5140 3709 c0 -5 -7 -9 -15 -9 -23 0 -18 -24 8 -35 12 -6 22 -17 22
-25 0 -24 28 -17 30 7 2 33 12 38 32 18 16 -17 16 -17 -5 -11 -13 5 -22 3 -22
-3 0 -12 48 -26 57 -17 11 11 -20 56 -39 56 -10 0 -18 4 -18 9 0 5 -11 11 -25
13 -14 3 -25 1 -25 -3z m30 -19 c0 -5 -5 -10 -11 -10 -5 0 -7 5 -4 10 3 6 8
10 11 10 2 0 4 -4 4 -10z"/>
<path d="M2069 3676 c-14 -38 -51 -53 -74 -30 -16 17 -55 19 -55 3 0 -6 6 -9
14 -6 18 7 40 -18 33 -37 -3 -7 5 -23 19 -35 13 -11 24 -17 24 -12 0 6 -4 13
-10 16 -13 8 -12 16 3 37 23 29 59 30 91 4 26 -22 28 -27 16 -41 -11 -14 -11
-18 -1 -25 8 -4 10 -13 7 -19 -4 -6 -2 -11 3 -11 6 0 11 -7 11 -15 0 -8 7 -15
15 -15 20 0 19 17 -2 29 -17 9 -17 11 0 45 9 20 24 39 32 42 22 9 8 24 -23 24
-38 0 -72 26 -72 56 0 35 -17 30 -31 -10z"/>
<path d="M5071 3683 c-1 -17 4 -35 11 -39 8 -5 7 -10 -3 -18 -13 -9 -12 -13 3
-28 17 -17 18 -17 18 1 0 11 4 22 10 26 11 7 2 36 -15 50 -6 6 -14 17 -18 25
-3 8 -6 1 -6 -17z"/>
<path d="M5708 3703 c7 -3 16 -2 19 1 4 3 -2 6 -13 5 -11 0 -14 -3 -6 -6z"/>
<path d="M5863 3683 c-10 -21 -10 -24 3 -19 9 3 18 6 20 6 2 0 4 6 4 14 0 26
-15 25 -27 -1z"/>
<path d="M1795 3682 c-5 -4 -16 -15 -24 -24 -12 -16 -10 -19 13 -28 27 -10 34
-34 14 -46 -17 -11 20 -34 55 -34 24 0 27 -3 18 -14 -7 -8 -8 -17 -3 -20 13
-8 35 20 38 50 2 15 -2 24 -12 24 -8 0 -14 -4 -14 -8 0 -4 -11 -9 -25 -10 -19
-1 -25 3 -25 18 0 11 4 20 10 20 5 0 7 7 3 16 -5 13 -1 15 18 9 13 -3 20 -3
14 2 -5 4 -10 15 -10 23 0 9 -7 14 -17 12 -10 -2 -18 2 -18 8 0 12 -20 13 -35
2z m25 -9 c0 -5 -5 -15 -10 -23 -8 -12 -10 -11 -10 8 0 12 5 22 10 22 6 0 10
-3 10 -7z"/>
<path d="M2000 3676 c0 -16 19 -25 38 -19 10 4 10 8 1 19 -15 18 -39 18 -39 0z"/>
<path d="M2121 3674 c0 -11 3 -14 6 -6 3 7 2 16 -1 19 -3 4 -6 -2 -5 -13z"/>
<path d="M5718 3662 c-15 -29 -13 -52 3 -52 5 0 9 7 9 15 0 8 5 15 10 15 6 0
10 11 10 25 0 33 -15 32 -32 -3z"/>
<path d="M4931 3664 c0 -11 3 -14 6 -6 3 7 2 16 -1 19 -3 4 -6 -2 -5 -13z"/>
<path d="M5665 3670 c-4 -6 5 -10 20 -10 15 0 24 4 20 10 -3 6 -12 10 -20 10
-8 0 -17 -4 -20 -10z"/>
<path d="M6184 3664 c3 -9 6 -18 6 -20 0 -3 4 -3 10 1 11 7 2 35 -12 35 -6 0
-7 -7 -4 -16z"/>
<path d="M2150 3655 c0 -9 5 -15 11 -13 6 2 11 8 11 13 0 5 -5 11 -11 13 -6 2
-11 -4 -11 -13z"/>
<path d="M5260 3640 c0 -13 7 -20 18 -20 28 0 34 11 14 26 -24 19 -32 17 -32
-6z"/>
<path d="M5781 3646 c-17 -9 -20 -15 -11 -21 7 -4 19 0 28 9 21 21 12 27 -17
12z"/>
<path d="M6027 3653 c-12 -11 -8 -22 13 -33 18 -9 20 -8 20 15 0 24 -18 34
-33 18z"/>
<path d="M4950 3642 c1 -14 27 -42 39 -42 21 0 7 32 -16 41 -13 5 -23 5 -23 1z"/>
<path d="M5975 3630 c3 -5 8 -10 11 -10 2 0 4 5 4 10 0 6 -5 10 -11 10 -5 0
-7 -4 -4 -10z"/>
<path d="M6160 3625 c0 -8 9 -15 20 -15 11 0 20 2 20 5 0 2 -9 9 -20 15 -16 9
-20 8 -20 -5z"/>
<path d="M1930 3611 c0 -5 -3 -17 -7 -27 -9 -23 13 -10 27 17 9 15 7 19 -5 19
-8 0 -15 -4 -15 -9z"/>
<path d="M5321 3604 c0 -11 3 -14 6 -6 3 7 2 16 -1 19 -3 4 -6 -2 -5 -13z"/>
<path d="M6124 3588 c5 -25 3 -38 -6 -41 -9 -4 -9 -6 -1 -6 7 -1 25 10 40 24
21 18 24 24 11 25 -9 0 -24 8 -34 17 -16 17 -17 16 -10 -19z"/>
<path d="M5550 3596 c0 -9 5 -16 10 -16 6 0 10 4 10 9 0 6 -4 13 -10 16 -5 3
-10 -1 -10 -9z"/>
<path d="M6001 3601 c-7 -5 -11 -13 -7 -19 8 -14 46 -3 46 14 0 16 -18 18 -39
5z"/>
<path d="M5160 3591 c0 -5 5 -13 10 -16 16 -10 12 -25 -7 -25 -17 -1 -17 -1
-1 -14 10 -7 15 -16 11 -19 -3 -4 -1 -7 6 -7 8 0 11 6 7 16 -3 8 -1 24 4 34 8
15 6 21 -10 30 -12 7 -20 7 -20 1z"/>
<path d="M5210 3586 c0 -9 7 -16 16 -16 14 0 14 -3 4 -15 -10 -12 -10 -15 4
-15 9 0 16 -8 16 -20 0 -11 -4 -20 -10 -20 -5 0 -10 -5 -10 -11 0 -6 16 -2 36
10 19 12 40 21 45 21 6 0 17 7 26 15 14 14 13 15 -13 9 -28 -6 -28 -6 -9 9 19
16 19 16 -9 17 -25 0 -28 -3 -24 -25 3 -14 2 -25 -2 -25 -16 0 -29 27 -23 48
3 12 1 22 -5 22 -6 0 -17 3 -26 6 -11 4 -16 1 -16 -10z"/>
<path d="M5362 3580 c12 -19 28 -27 28 -14 0 7 -27 34 -34 34 -4 0 -1 -9 6
-20z"/>
<path d="M5495 3591 c-8 -15 3 -31 21 -31 9 0 14 7 12 17 -4 20 -24 28 -33 14z"/>
<path d="M5670 3591 c0 -6 5 -13 10 -16 6 -3 10 1 10 9 0 9 -4 16 -10 16 -5 0
-10 -4 -10 -9z"/>
<path d="M5796 3591 c-4 -7 -5 -15 -2 -18 9 -9 19 4 14 18 -4 11 -6 11 -12 0z"/>
<path d="M5013 3565 c12 -25 37 -35 37 -14 0 6 7 9 15 5 8 -3 15 -1 15 4 0 6
-9 10 -19 10 -11 0 -23 5 -26 10 -3 6 -12 10 -20 10 -10 0 -11 -5 -2 -25z"/>
<path d="M5580 3580 c0 -5 5 -10 10 -10 6 0 10 5 10 10 0 6 -4 10 -10 10 -5 0
-10 -4 -10 -10z"/>
<path d="M5703 3574 c-3 -9 3 -23 16 -35 l21 -20 0 36 c0 37 -25 50 -37 19z"/>
<path d="M2199 3578 c-7 -35 -2 -68 9 -63 8 3 16 5 18 5 2 0 4 6 4 13 0 15
-29 56 -31 45z"/>
<path d="M1973 3559 c-9 -9 -10 -16 -2 -26 8 -9 8 -13 0 -13 -6 0 -11 -5 -11
-11 0 -13 40 -2 60 17 12 12 12 14 -7 14 -12 0 -23 7 -25 16 -2 12 -6 13 -15
3z"/>
<path d="M2054 3555 c24 -18 39 -20 34 -2 -3 6 -15 13 -29 15 -23 2 -23 2 -5
-13z"/>
<path d="M1745 3551 c-3 -5 -1 -12 4 -15 13 -8 42 4 35 15 -7 12 -31 12 -39 0z"/>
<path d="M4867 3554 c-3 -4 -17 -8 -29 -9 -13 -1 -29 -3 -35 -4 -7 0 -13 -5
-13 -11 0 -14 27 -12 34 3 4 9 7 9 12 0 6 -13 53 -3 55 12 1 12 -15 18 -24 9z"/>
<path d="M5120 3542 c0 -5 -14 -22 -30 -39 -18 -19 -27 -34 -20 -38 13 -8 30
3 30 19 0 7 9 25 21 40 11 14 16 26 10 26 -6 0 -11 -4 -11 -8z"/>
<path d="M6179 3537 c-17 -13 -35 -57 -23 -57 11 0 44 42 44 57 0 16 -1 16
-21 0z"/>
<path d="M2490 3530 c0 -5 5 -10 11 -10 5 0 7 5 4 10 -3 6 -8 10 -11 10 -2 0
-4 -4 -4 -10z"/>
<path d="M5925 3520 c4 -6 11 -8 16 -5 14 9 11 15 -7 15 -8 0 -12 -5 -9 -10z"/>
<path d="M6070 3520 c0 -5 7 -7 15 -4 8 4 15 8 15 10 0 2 -7 4 -15 4 -8 0 -15
-4 -15 -10z"/>
<path d="M2060 3510 c0 -5 5 -10 10 -10 6 0 10 5 10 10 0 6 -4 10 -10 10 -5 0
-10 -4 -10 -10z"/>
<path d="M6120 3504 c0 -8 5 -12 10 -9 6 4 8 11 5 16 -9 14 -15 11 -15 -7z"/>
<path d="M1652 3488 c-4 -51 -2 -62 18 -82 11 -12 20 -15 20 -8 0 7 -4 12 -10
12 -5 0 -10 12 -10 26 0 18 6 28 20 31 20 5 20 7 4 24 -23 25 -39 24 -42 -3z"/>
<path d="M1743 3498 c-2 -5 7 -8 21 -8 14 0 27 4 30 9 3 5 -6 8 -20 7 -14 0
-28 -4 -31 -8z"/>
<path d="M1590 3493 c1 -18 19 -35 29 -28 9 5 9 10 0 21 -12 15 -29 19 -29 7z"/>
<path d="M1900 3490 c0 -5 -14 -10 -31 -10 -24 0 -30 -3 -25 -16 3 -9 6 -18 6
-20 0 -2 5 -4 10 -4 6 0 10 7 10 16 0 9 6 14 12 12 7 -3 18 1 25 8 16 15 17
24 3 24 -5 0 -10 -4 -10 -10z"/>
<path d="M2031 3484 c0 -11 3 -14 6 -6 3 7 2 16 -1 19 -3 4 -6 -2 -5 -13z"/>
<path d="M2121 3484 c0 -11 3 -14 6 -6 3 7 2 16 -1 19 -3 4 -6 -2 -5 -13z"/>
<path d="M5710 3493 c1 -4 7 -19 16 -33 l14 -25 -2 29 c-2 16 -9 31 -15 34 -7
2 -13 0 -13 -5z"/>
<path d="M5770 3493 c0 -5 10 -8 23 -9 12 0 30 -4 40 -8 13 -6 16 -5 11 8 -6
16 -74 24 -74 9z"/>
<path d="M5191 3481 c-8 -6 -9 -11 -3 -15 6 -3 14 -1 17 5 9 14 2 20 -14 10z"/>
<path d="M5667 3484 c-3 -4 1 -13 9 -22 12 -11 18 -12 27 -3 9 9 8 14 -3 21
-18 11 -25 12 -33 4z"/>
<path d="M5961 3454 c0 -11 3 -14 6 -6 3 7 2 16 -1 19 -3 4 -6 -2 -5 -13z"/>
<path d="M1941 3444 c0 -11 3 -14 6 -6 3 7 2 16 -1 19 -3 4 -6 -2 -5 -13z"/>
<path d="M5130 3456 c0 -2 9 -6 20 -9 11 -3 20 -1 20 4 0 5 -9 9 -20 9 -11 0
-20 -2 -20 -4z"/>
<path d="M5807 3447 c3 -6 -2 -16 -13 -24 -16 -12 -17 -15 -4 -23 11 -7 19 -4
29 10 7 11 20 20 27 20 20 0 17 -9 -8 -31 -20 -16 -21 -18 -5 -19 10 0 20 7
24 16 3 9 15 20 27 24 l21 9 -22 0 c-12 1 -24 5 -27 10 -3 5 -17 11 -31 13
-15 3 -22 1 -18 -5z"/>
<path d="M1710 3440 c0 -5 5 -10 10 -10 6 0 10 5 10 10 0 6 -4 10 -10 10 -5 0
-10 -4 -10 -10z"/>
<path d="M1611 3422 c-14 -26 -14 -42 -1 -42 6 0 10 6 10 14 0 8 6 16 13 19 9
3 9 7 0 17 -9 9 -14 8 -22 -8z"/>
<path d="M2020 3425 c-7 -9 -21 -13 -31 -10 -11 4 -19 1 -19 -5 0 -8 -9 -10
-25 -6 -14 4 -25 2 -25 -4 0 -30 94 -13 115 21 11 17 -1 21 -15 4z"/>
<path d="M4960 3430 c0 -5 5 -10 10 -10 6 0 10 5 10 10 0 6 -4 10 -10 10 -5 0
-10 -4 -10 -10z"/>
<path d="M5001 3414 c0 -11 3 -14 6 -6 3 7 2 16 -1 19 -3 4 -6 -2 -5 -13z"/>
<path d="M6005 3420 c-3 -5 -2 -10 4 -10 5 0 13 5 16 10 3 6 2 10 -4 10 -5 0
-13 -4 -16 -10z"/>
<path d="M1787 3413 c-12 -11 -7 -53 6 -53 7 0 12 13 12 30 0 30 -5 36 -18 23z"/>
<path d="M5095 3410 c-3 -5 -2 -10 4 -10 5 0 13 5 16 10 3 6 2 10 -4 10 -5 0
-13 -4 -16 -10z"/>
<path d="M6158 3398 c9 -9 15 -9 24 0 9 9 7 12 -12 12 -19 0 -21 -3 -12 -12z"/>
<path d="M1061 3387 c-6 -6 -11 -20 -10 -31 0 -20 1 -20 8 -2 4 11 16 22 26
26 16 6 16 7 3 12 -9 4 -21 1 -27 -5z"/>
<path d="M5065 3390 c-3 -5 -1 -10 4 -10 6 0 11 5 11 10 0 6 -2 10 -4 10 -3 0
-8 -4 -11 -10z"/>
<path d="M5918 3383 c7 -3 16 -2 19 1 4 3 -2 6 -13 5 -11 0 -14 -3 -6 -6z"/>
<path d="M1085 3334 c-19 -47 -19 -49 7 -24 21 20 32 60 16 60 -4 0 -15 -16
-23 -36z"/>
<path d="M1653 3352 c-9 -14 -12 -15 -27 -3 -29 24 -17 -5 14 -32 20 -18 30
-22 30 -13 0 8 5 16 12 18 9 3 8 10 -3 25 -14 20 -16 20 -26 5z"/>
<path d="M1144 3328 c9 -46 21 -53 35 -22 10 23 10 26 -5 20 -11 -4 -15 -2
-11 8 3 8 -1 17 -10 20 -13 5 -14 1 -9 -26z"/>
<path d="M1690 3350 c0 -5 4 -10 9 -10 6 0 13 5 16 10 3 6 -1 10 -9 10 -9 0
-16 -4 -16 -10z"/>
<path d="M1772 3325 c-7 -8 -9 -15 -4 -15 5 0 15 7 22 15 16 19 -1 19 -18 0z"/>
<path d="M6100 3324 c0 -8 5 -12 10 -9 6 3 10 10 10 16 0 5 -4 9 -10 9 -5 0
-10 -7 -10 -16z"/>
<path d="M5946 3321 c-3 -5 1 -11 9 -15 15 -6 29 7 18 18 -9 9 -21 8 -27 -3z"/>
<path d="M1546 3285 c4 -8 8 -15 10 -15 2 0 4 7 4 15 0 8 -4 15 -10 15 -5 0
-7 -7 -4 -15z"/>
<path d="M1795 3291 c-3 -5 -1 -12 4 -15 5 -3 11 1 15 9 6 16 -9 21 -19 6z"/>
<path d="M1600 3270 c0 -5 5 -10 10 -10 6 0 10 5 10 10 0 6 -4 10 -10 10 -5 0
-10 -4 -10 -10z"/>
<path d="M1111 3254 c-7 -8 -10 -18 -6 -22 3 -3 10 0 14 7 5 7 14 11 20 7 7
-5 9 -1 5 8 -8 20 -15 20 -33 0z"/>
<path d="M1711 3254 c0 -11 3 -14 6 -6 3 7 2 16 -1 19 -3 4 -6 -2 -5 -13z"/>
<path d="M6092 3251 c-11 -7 -9 -13 9 -30 12 -11 26 -21 31 -21 13 0 9 18 -6
27 -7 4 -15 13 -17 20 -2 8 -9 9 -17 4z"/>
<path d="M6130 3244 c0 -17 22 -14 28 4 2 7 -3 12 -12 12 -9 0 -16 -7 -16 -16z"/>
<path d="M1603 3211 c1 -12 8 -18 23 -17 17 1 19 4 10 19 -14 23 -35 22 -33
-2z"/>
<path d="M1140 3195 c0 -8 4 -15 10 -15 5 0 7 7 4 15 -4 8 -8 15 -10 15 -2 0
-4 -7 -4 -15z"/>
<path d="M1065 3183 c4 -10 7 -26 7 -35 0 -10 6 -18 14 -18 16 0 18 23 4 51
-13 24 -35 26 -25 2z"/>
<path d="M1131 3146 c-8 -10 -8 -16 1 -23 28 -22 38 -24 38 -9 0 9 -7 16 -15
16 -21 0 -19 18 3 23 14 4 14 5 1 6 -9 0 -22 -5 -28 -13z"/>
<path d="M1368 3133 c7 -3 16 -2 19 1 4 3 -2 6 -13 5 -11 0 -14 -3 -6 -6z"/>
<path d="M1106 3083 c-17 -17 -4 -38 23 -39 18 -1 28 3 25 10 -6 16 -40 36
-48 29z"/>
<path d="M1081 3054 c0 -11 3 -14 6 -6 3 7 2 16 -1 19 -3 4 -6 -2 -5 -13z"/>
<path d="M1169 3030 c-6 -16 -15 -30 -20 -30 -5 0 -9 -5 -9 -11 0 -6 7 -9 15
-5 8 3 19 -2 24 -12 8 -13 10 -4 11 36 0 59 -6 66 -21 22z"/>
<path d="M1090 3006 c0 -9 5 -16 10 -16 6 0 10 4 10 9 0 6 -4 13 -10 16 -5 3
-10 -1 -10 -9z"/>
<path d="M1100 2938 c0 -13 50 -42 58 -34 7 8 -9 26 -24 26 -8 0 -14 5 -14 10
0 6 -4 10 -10 10 -5 0 -10 -6 -10 -12z"/>
<path d="M5150 2446 c0 -2 7 -7 16 -10 8 -3 12 -2 9 4 -6 10 -25 14 -25 6z"/>
<path d="M1233 2396 c-9 -11 -9 -23 -1 -50 11 -36 28 -49 28 -21 0 8 -4 15
-10 15 -16 0 -12 27 5 34 8 3 12 12 9 21 -7 18 -15 19 -31 1z"/>
<path d="M1288 2378 c7 -7 12 -20 12 -30 0 -10 5 -18 10 -18 6 0 10 8 10 18 0
20 -18 42 -34 42 -6 0 -5 -5 2 -12z"/>
<path d="M1346 2325 c4 -8 7 -15 9 -15 1 0 8 7 15 15 10 13 9 15 -8 15 -15 0
-20 -5 -16 -15z"/>
<path d="M5395 2240 c10 -11 20 -20 23 -20 3 0 -3 9 -13 20 -10 11 -20 20 -23
20 -3 0 3 -9 13 -20z"/>
<path d="M5485 2140 c10 -11 20 -20 23 -20 3 0 -3 9 -13 20 -10 11 -20 20 -23
20 -3 0 3 -9 13 -20z"/>
</g>
</svg>
