<?xml version="1.0" encoding="UTF-8" standalone="no"?>
<!-- Generator: Adobe Illustrator 14.0.0, SVG Export Plug-In . SVG Version: 6.00 Build 43363)  -->
<svg id="svg2" xmlns:rdf="http://www.w3.org/1999/02/22-rdf-syntax-ns#" xmlns="http://www.w3.org/2000/svg" enable-background="new 0 0 666.24 275.907" xml:space="preserve" height="277.63" width="661.44" version="1.1" y="0px" x="0px" xmlns:cc="http://creativecommons.org/ns#" xmlns:dc="http://purl.org/dc/elements/1.1/" viewBox="0 0 661.43586 277.63171"><metadata id="metadata32"><rdf:RDF><cc:Work rdf:about=""><dc:format>image/svg+xml</dc:format><dc:type rdf:resource="http://purl.org/dc/dcmitype/StillImage"/></cc:Work></rdf:RDF></metadata>
<g id="Layer_3" transform="translate(-2.2812 1.7242)">
	<path id="path5" d="m176.18 215.03s36.925-135.74 149.32-136.57 159.17 42.624 164.55 153.48c-104.22-41.083-187.46 15.797-218.16 43.969-31.64-40.63-33.99-59.43-95.71-60.88z"/>
</g>
<g id="Layer_2" transform="translate(-2.2812 1.7242)">
	<path id="path10" d="m552.25 148.78c0-12.811-18.305-31.293-27.322-27.37" stroke="#000" stroke-width="6" fill="none"/>
	<circle id="circle12" d="m 558.24898,150.34 c 0,3.08119 -2.4978,5.579 -5.579,5.579 -3.08119,0 -5.579,-2.49781 -5.579,-5.579 0,-3.0812 2.49781,-5.579 5.579,-5.579 3.0812,0 5.579,2.4978 5.579,5.579 z" cy="150.34" cx="552.67" r="5.579"/>
	<circle id="circle14" d="m 560.87503,156.88 c 0,4.47075 -3.62426,8.09501 -8.095,8.09501 -4.47075,0 -8.095,-3.62426 -8.095,-8.09501 0,-4.47074 3.62425,-8.095 8.095,-8.095 4.47074,0 8.095,3.62426 8.095,8.095 z" cy="156.88" cx="552.78" r="8.095"/>
	<circle id="circle16" d="m 560.87503,164.00999 c 0,4.47075 -3.62426,8.095 -8.095,8.095 -4.47075,0 -8.095,-3.62425 -8.095,-8.095 0,-4.47074 3.62425,-8.095 8.095,-8.095 4.47074,0 8.095,3.62426 8.095,8.095 z" cy="164.01" cx="552.78" r="8.095"/>
	<path id="path18" d="m571.77 197.29c-0.737-1.001-1.598-1.822-1.805-2.672-1.618-6.629-6.54-26.801-13.305-28.636-0.915-0.248-1.477-1.281-1.256-2.308s1.144-1.654 2.057-1.409c7.684 2.083 12.294 17.014 15.79 31.343 0.249 1.019-0.028 2.269-0.397 3.485-0.05 0.167-0.296 1.196-0.444 1.196l-0.64-0.99z"/>
	<path id="path20" d="m567.52 200.05c-0.737-1.001-1.598-1.822-1.805-2.672-1.618-6.629-6.54-26.801-13.305-28.636-0.915-0.248-1.477-1.281-1.256-2.308s1.144-1.654 2.057-1.409c7.684 2.083 12.294 17.014 15.79 31.343 0.249 1.019-0.028 2.269-0.397 3.485-0.05 0.167-0.296 1.196-0.444 1.196l-0.65-0.99z"/>
	<path id="path22" d="m557.14 201.4c0.15-1.233 0.497-2.371 0.262-3.214-1.845-6.57-7.456-26.561-2.462-31.479 0.674-0.666 0.656-1.841-0.038-2.628-0.697-0.785-1.809-0.88-2.485-0.218-5.672 5.587-2.36 20.856 1.626 35.059 0.283 1.009 1.139 1.962 2.056 2.841 0.127 0.121 0.845 0.897 0.975 0.824l0.06-1.18z"/>
	<path id="path24" d="m550.8 200.9c0.15-1.233 0.497-2.371 0.262-3.214-1.845-6.57-7.456-26.561-2.462-31.479 0.674-0.666 0.656-1.841-0.038-2.628-0.697-0.785-1.809-0.88-2.485-0.218-5.672 5.587-2.36 20.856 1.626 35.059 0.283 1.009 1.139 1.962 2.056 2.841 0.127 0.121 0.845 0.897 0.975 0.824l0.06-1.18z"/>
	<path id="path26" d="m563.44 199.58c0.205-1.528 0.678-2.938 0.356-3.982-2.516-8.141-10.169-32.91-3.357-39.004 0.919-0.825 0.896-2.28-0.052-3.256-0.951-0.973-2.467-1.09-3.39-0.27-7.736 6.922-3.22 25.842 2.218 43.439 0.386 1.25 1.553 2.431 2.804 3.52 0.173 0.15 1.151 1.112 1.329 1.021l0.09-1.47z"/>
<path id="path8" d="m653.3 67.652c9.2652 1.9724 13.275 10.792-0.63485 15.65-65.088 22.731-331.54 100.31-331.54 100.31-6.2704 1.8968-15.261 2.5381-25.118-0.0996 0 0-277.94-79.934-288.32-85.153-4.2611-2.138-5.1853-9.636 0.9753-11.867 6.9087-2.503 295.1-81.323 303.22-83.896 9.801-3.107 16.331-2.8932 26.659-0.78559 0 0 248.7 51.781 314.75 65.842z" stroke="#fff" stroke-width="4"/></g>
</svg>
