<?xml version="1.0" encoding="UTF-8" standalone="no"?>
<!-- Generator: Adobe Illustrator 13.0.1, SVG Export Plug-In . SVG Version: 6.00 Build 14948)  -->
<svg id="svg2" xmlns:rdf="http://www.w3.org/1999/02/22-rdf-syntax-ns#" xmlns="http://www.w3.org/2000/svg" enable-background="new 0 0 412.667 308" xml:space="preserve" height="308px" width="412.67px" version="1.1" y="0px" x="0px" xmlns:cc="http://creativecommons.org/ns#" xmlns:dc="http://purl.org/dc/elements/1.1/" viewBox="0 0 412.667 308"><metadata id="metadata257"><rdf:RDF><cc:Work rdf:about=""><dc:format>image/svg+xml</dc:format><dc:type rdf:resource="http://purl.org/dc/dcmitype/StillImage"/><dc:title/></cc:Work></rdf:RDF></metadata><g id="Layer_2"><path id="path239" d="m267 168.33s-0.75-3.5 3.25-15.75c0 0-42.75-12.75-87.5-12.75s-120.5 17.25-136 72.25 51.25 106.5 109.5 81.5-24.75-27-22.25-54.75 18.75-87.5 133-70.5z" fill="#639"/><path id="path241" d="m330.83 180.5s-14.334 24.666-37 23.833-26.83-21.33-27.33-23-0.501-3.333-3.667-3.5-7-1.833-22.5-1.333-48.5 4.5-62.33 35.67 8.333 53.167 18.5 60.167 10.666-25.334 36.5-25.167 36 18.166 37.167 23 44-17.166 67-53.833l-9.667-10c0-0.01 10.17-27.34 3.33-25.84z" fill="#639"/><path id="path243" d="m52.666 17.833s31 33.833 61.5 37 53.5-11.166 53.33-48.333 99-4.167 139.5 21.583v2.5h-28s86.75 11.75 127.25 48.5l1 4.5s-8.5 27-30.5 57.75l-14-0.5s-10.5 20-16.75 20.25 3.25-2.75 1-17.75-15.5-22.25-28.75-22.5-25.5 8-33.25 14.5-7.75 15-16.25 9.25-54.75-17.75-96.25-15.25-135 22-165.5 85v-183.5l45.666-12.997z" fill="#639"/><path id="path245" d="m58 8.333h100.33s8 26.667-23.667 37-66.66-19-76.66-37z" fill="#639"/><g id="g247"><g id="g249"><path id="path251" d="m172.2 280.92c1.119 0 2.212 0.291 3.278 0.873s1.897 1.415 2.492 2.499c0.595 1.083 0.893 2.213 0.893 3.39 0 1.164-0.293 2.283-0.879 3.358-0.587 1.074-1.408 1.908-2.466 2.503-1.058 0.594-2.163 0.891-3.318 0.891-1.154 0-2.261-0.297-3.318-0.891-1.058-0.595-1.881-1.429-2.47-2.503-0.589-1.075-0.884-2.194-0.884-3.358 0-1.177 0.299-2.307 0.897-3.39 0.598-1.084 1.43-1.917 2.496-2.499s2.16-0.87 3.28-0.87zm0 1.12c-0.937 0-1.849 0.244-2.734 0.73-0.888 0.486-1.581 1.182-2.082 2.086-0.5 0.905-0.751 1.847-0.751 2.826 0 0.973 0.246 1.906 0.738 2.798 0.492 0.893 1.18 1.589 2.063 2.087 0.884 0.499 1.806 0.748 2.766 0.748s1.883-0.249 2.767-0.748c0.883-0.498 1.569-1.194 2.059-2.087 0.489-0.892 0.733-1.825 0.733-2.798 0-0.979-0.249-1.921-0.747-2.826-0.497-0.904-1.191-1.6-2.081-2.086s-1.81-0.73-2.74-0.73zm-2.93 9.38v-7.272h2.466c0.842 0 1.452 0.067 1.829 0.202 0.377 0.134 0.677 0.368 0.901 0.703 0.224 0.334 0.336 0.689 0.336 1.065 0 0.531-0.188 0.994-0.562 1.388-0.374 0.395-0.87 0.615-1.489 0.663 0.254 0.107 0.457 0.235 0.61 0.385 0.288 0.287 0.642 0.768 1.061 1.442l0.874 1.424h-1.413l-0.637-1.146c-0.501-0.901-0.904-1.466-1.211-1.692-0.212-0.167-0.521-0.251-0.928-0.251h-0.681v3.09h-1.16zm1.16-4.09h1.405c0.672 0 1.13-0.102 1.374-0.305 0.245-0.203 0.367-0.472 0.367-0.806 0-0.215-0.06-0.407-0.177-0.578-0.118-0.17-0.281-0.297-0.49-0.38-0.21-0.084-0.597-0.126-1.162-0.126h-1.317v2.21z" fill="#639"/></g></g></g></svg>
